<svg width="222" height="37" viewBox="0 0 222 37" fill="none" xmlns="http://www.w3.org/2000/svg">
<g clip-path="url(#clip0_831_1193)">
<path d="M31.8139 5.18398H47.1457C47.1545 5.18398 47.163 5.18748 47.1692 5.19371C47.1754 5.19994 47.1789 5.2084 47.1789 5.21721L47.1755 34.8999L36.7611 34.8812C36.762 34.8789 36.7636 34.8764 36.7659 34.8736C36.7692 34.8699 36.7703 34.8667 36.7694 34.8639L23.8025 4.01744C23.7992 4.00926 23.7934 4.00225 23.786 3.99731C23.7786 3.99238 23.7699 3.98974 23.7609 3.98975H19.2678C19.2613 3.98976 19.2549 3.99167 19.2495 3.99524C19.2441 3.99881 19.2399 4.00389 19.2374 4.00982L5.90146 34.8985L0.635076 34.9006C0.630625 34.9007 0.626231 34.8996 0.622306 34.8975C0.61838 34.8954 0.615051 34.8923 0.61263 34.8886C0.610209 34.8849 0.608775 34.8806 0.608463 34.8761C0.608151 34.8717 0.608971 34.8672 0.610845 34.8632L15.7177 0.301824C15.722 0.291941 15.7292 0.283532 15.7383 0.277629C15.7474 0.271727 15.758 0.268586 15.7689 0.268593H27.1567C27.1701 0.268617 27.1832 0.272489 27.1943 0.279739C27.2055 0.286989 27.2143 0.297306 27.2197 0.309439L41.9063 33.9064C41.9086 33.912 41.9121 33.9127 41.9167 33.9085L41.9305 33.894C41.9342 33.8903 41.9361 33.8861 41.9361 33.8815V9.35513C41.9361 9.34595 41.9324 9.33715 41.9259 9.33066C41.9195 9.32416 41.9106 9.32052 41.9015 9.32052H31.827C31.8182 9.32052 31.8097 9.31709 31.8035 9.31099C31.7973 9.30488 31.7938 9.29661 31.7938 9.28798C31.7938 7.9449 31.7938 6.59998 31.7938 5.25321C31.7938 5.24167 31.8005 5.21859 31.8139 5.18398Z" fill="white"/>
<path d="M66.8592 0.28867C66.8583 0.292824 66.8567 0.296516 66.8544 0.299747C66.8502 0.305747 66.8491 0.310363 66.8509 0.313593L73.2534 11.6723C73.2611 11.686 73.2736 11.6965 73.2885 11.7017C73.3034 11.7069 73.3197 11.7066 73.3344 11.7007L74.0114 11.4237C74.0254 11.418 74.0368 11.4074 74.0436 11.3939C74.0503 11.3805 74.0519 11.365 74.0481 11.3504L71.1688 0.271363L72.1727 0.28867L74.9807 11.1212C74.9876 11.148 75.0049 11.1597 75.0326 11.1565L75.7332 11.0679C75.7595 11.0647 75.7727 11.0497 75.7727 11.0229V0.28867C76.0948 0.256824 76.417 0.255901 76.7391 0.285901L76.7294 11.0416C76.7294 11.0596 76.7384 11.0695 76.7564 11.0714L77.4965 11.1621C77.5344 11.1667 77.5581 11.1505 77.5678 11.1136L80.3966 0.285901C80.7248 0.255901 81.0527 0.256824 81.3804 0.28867L78.4907 11.3607C78.4805 11.4004 78.4944 11.4281 78.5322 11.4438L79.2162 11.7304C79.2244 11.734 79.2335 11.7344 79.242 11.7316C79.2504 11.7288 79.2575 11.7229 79.2619 11.7152L85.7073 0.28867C86.3073 0.254978 86.9073 0.254978 87.5073 0.28867C87.5077 6.22867 87.5075 12.1684 87.5066 18.108C87.5066 18.6987 87.4911 19.1601 87.4602 19.4919C86.9617 24.84 82.8176 29.1648 77.4238 29.7318C71.1536 30.3909 65.6248 25.8009 65.0197 19.5653C64.9879 19.2367 64.972 18.7756 64.972 18.1821C64.9729 13.4744 64.9731 8.76621 64.9727 4.05759C64.9727 4.02759 64.9577 4.01259 64.9277 4.01259L31.8139 3.98975C31.8144 3.97129 31.8116 3.95375 31.8056 3.93713C31.7977 3.91498 31.7938 3.89236 31.7938 3.86929V0.301132C31.7938 0.291768 31.7975 0.282787 31.8042 0.276165C31.8108 0.269544 31.8198 0.265824 31.8291 0.265824L66.8592 0.28867ZM86.0188 2.02152C86.0187 2.01643 86.017 2.01152 86.0138 2.00751C86.0107 2.00351 86.0063 2.00063 86.0014 1.9993C85.9965 1.99797 85.9913 1.99828 85.9866 2.00016C85.9818 2.00204 85.9779 2.00541 85.9752 2.00975L80.092 12.2012C80.0891 12.2061 80.088 12.2119 80.089 12.2175C80.0901 12.2231 80.0931 12.2281 80.0975 12.2317L80.7268 12.7225C80.7314 12.726 80.7371 12.7278 80.7428 12.7274C80.7485 12.727 80.7539 12.7245 80.758 12.7204L86.0119 7.46652C86.0163 7.46211 86.0188 7.45614 86.0188 7.4499V2.02152ZM66.7761 2.36352C66.7736 2.35883 66.7696 2.35512 66.7648 2.353C66.7599 2.35087 66.7544 2.35046 66.7493 2.35182C66.7442 2.35319 66.7397 2.35625 66.7365 2.36051C66.7333 2.36477 66.7317 2.36998 66.7318 2.37529L66.7388 7.65828C66.7388 7.66452 66.7413 7.6705 66.7457 7.6749L71.7649 12.6948C71.7689 12.6989 71.7743 12.7014 71.7801 12.7018C71.7858 12.7022 71.7915 12.7004 71.7961 12.6969L72.4309 12.2019C72.4354 12.1983 72.4384 12.1933 72.4394 12.1877C72.4404 12.1821 72.4394 12.1763 72.4364 12.1714L66.7761 2.36352ZM81.9211 14.058C81.9243 14.0621 81.929 14.065 81.9342 14.066C81.9394 14.067 81.9448 14.0661 81.9494 14.0635L86.0077 11.7173C86.011 11.7154 86.0138 11.7127 86.0157 11.7094C86.0177 11.7061 86.0187 11.7024 86.0188 11.6986V8.86359C86.0188 8.85919 86.0175 8.85491 86.015 8.85127C86.0125 8.84764 86.009 8.84483 86.0049 8.84319C86.0008 8.84156 85.9963 8.84118 85.992 8.8421C85.9877 8.84302 85.9838 8.8452 85.9807 8.84836L81.4344 13.3941C81.4306 13.3978 81.4282 13.4029 81.4279 13.4082C81.4275 13.4135 81.4291 13.4189 81.4323 13.4231L81.9211 14.058ZM71.0857 13.3961C71.089 13.392 71.0907 13.3869 71.0904 13.3817C71.0902 13.3764 71.088 13.3715 71.0844 13.3677L66.7727 9.06021C66.7697 9.05718 66.7658 9.05512 66.7617 9.05429C66.7575 9.05345 66.7531 9.05387 66.7492 9.05551C66.7453 9.05714 66.7419 9.05991 66.7396 9.06346C66.7372 9.06701 66.736 9.07118 66.736 9.07544L66.7394 11.8232C66.7394 11.827 66.7403 11.8307 66.7421 11.8339C66.744 11.8372 66.7466 11.84 66.7498 11.8419L70.5568 14.0386C70.5613 14.0412 70.5666 14.042 70.5717 14.041C70.5768 14.04 70.5814 14.0372 70.5845 14.0331L71.0857 13.3961ZM77.4481 16.2741L78.6077 15.1317C78.628 15.1119 78.6481 15.1119 78.6679 15.1317L82.0332 18.4971C82.0394 18.5031 82.0471 18.5073 82.0556 18.5091C82.064 18.511 82.0728 18.5104 82.081 18.5074C82.0891 18.5044 82.0962 18.4992 82.1015 18.4923C82.1067 18.4855 82.11 18.4773 82.1108 18.4687C82.3828 14.9711 79.6994 11.9312 76.1195 12.0205C72.6379 12.1071 70.1144 15.0286 70.3727 18.4832C70.3729 18.4877 70.3744 18.492 70.3771 18.4956C70.3797 18.4992 70.3834 18.502 70.3876 18.5035C70.3918 18.5051 70.3964 18.5054 70.4007 18.5043C70.4051 18.5033 70.4091 18.501 70.4121 18.4977L74.9717 13.9375C74.9769 13.9323 74.983 13.9282 74.9897 13.9254C74.9965 13.9226 75.0037 13.9212 75.011 13.9212C75.0183 13.9212 75.0255 13.9226 75.0321 13.9254C75.0388 13.9282 75.0449 13.9323 75.0499 13.9375L77.3871 16.2741C77.4074 16.2944 77.4277 16.2944 77.4481 16.2741ZM86.0188 12.8838C86.0189 12.877 86.0171 12.8703 86.0138 12.8643C86.0104 12.8584 86.0055 12.8534 85.9996 12.85C85.9937 12.8465 85.987 12.8447 85.9801 12.8447C85.9733 12.8447 85.9666 12.8465 85.9607 12.8499L82.4354 14.8825C82.4271 14.8872 82.4208 14.8948 82.4177 14.9039C82.4146 14.913 82.415 14.9229 82.4188 14.9317L82.7158 15.6385C82.7195 15.6471 82.7261 15.654 82.7345 15.6581C82.7429 15.6622 82.7525 15.6631 82.7615 15.6607L85.9897 14.7994C85.998 14.7973 86.0054 14.7925 86.0107 14.7857C86.0159 14.7789 86.0188 14.7706 86.0188 14.7621V12.8838ZM66.7623 12.9579C66.7589 12.9559 66.7551 12.9549 66.7512 12.9549C66.7473 12.9549 66.7434 12.956 66.74 12.9579C66.7367 12.9599 66.7339 12.9627 66.7319 12.9661C66.73 12.9695 66.729 12.9734 66.7291 12.9773L66.7394 14.8306C66.7396 14.8354 66.7413 14.84 66.7443 14.8437C66.7473 14.8475 66.7514 14.8502 66.7561 14.8514L69.7427 15.6565C69.7479 15.6579 69.7535 15.6574 69.7583 15.6549C69.7632 15.6525 69.767 15.6484 69.769 15.6434L70.0847 14.8957C70.0868 14.8907 70.087 14.8852 70.0854 14.8801C70.0837 14.875 70.0803 14.8707 70.0757 14.868L66.7623 12.9579ZM77.392 17.6324L75.034 15.2868C75.0259 15.2787 75.0149 15.2742 75.0034 15.2742C74.9918 15.2742 74.9807 15.2787 74.9724 15.2868L72.1277 18.1322C72.1239 18.1355 72.1216 18.14 72.1212 18.1449C72.1208 18.1498 72.1223 18.1547 72.1255 18.1586C72.1286 18.1625 72.1332 18.165 72.1382 18.1658C72.1433 18.1666 72.1484 18.1654 72.1526 18.1627L75.0859 16.263C75.0925 16.2587 75.1005 16.257 75.1082 16.2583C75.1159 16.2595 75.1228 16.2637 75.1274 16.2699L77.0223 18.7442C77.0245 18.747 77.0273 18.7493 77.0305 18.751C77.0336 18.7527 77.0371 18.7537 77.0406 18.7539C77.0441 18.7542 77.0476 18.7537 77.0509 18.7525C77.0542 18.7513 77.0572 18.7494 77.0597 18.747L78.589 17.3021C78.6056 17.286 78.6236 17.2839 78.643 17.2959L80.7144 18.5677C80.7175 18.5695 80.7213 18.5701 80.7249 18.5694C80.7286 18.5687 80.7319 18.5668 80.7342 18.564C80.7365 18.5612 80.7376 18.5577 80.7374 18.5542C80.7372 18.5506 80.7357 18.5473 80.7331 18.5448L78.6624 16.4776C78.6448 16.4601 78.6275 16.4601 78.6104 16.4776L77.4522 17.6324C77.4319 17.6522 77.4118 17.6522 77.392 17.6324ZM83.0807 17.3866C83.0819 17.3958 83.0864 17.4043 83.0934 17.4104C83.1004 17.4166 83.1094 17.4199 83.1187 17.4198L85.9807 17.4219C85.9908 17.4219 86.0005 17.4179 86.0077 17.4107C86.0148 17.4036 86.0188 17.3939 86.0188 17.3838V15.8365C86.0189 15.8306 86.0176 15.8248 86.0151 15.8195C86.0126 15.8142 86.0089 15.8096 86.0042 15.806C85.9996 15.8023 85.9942 15.7998 85.9884 15.7987C85.9827 15.7975 85.9767 15.7976 85.9711 15.7991L83.0149 16.5884C83.0061 16.5908 82.9984 16.5963 82.9933 16.604C82.9882 16.6116 82.986 16.6208 82.9872 16.6299L83.0807 17.3866ZM66.7789 15.8517C66.7742 15.8505 66.7693 15.8503 66.7645 15.8512C66.7597 15.8522 66.7552 15.8542 66.7513 15.8571C66.7475 15.8601 66.7443 15.8639 66.7421 15.8682C66.7399 15.8725 66.7388 15.8773 66.7388 15.8822L66.7367 17.3991C66.7367 17.4075 66.74 17.4156 66.746 17.4216C66.752 17.4275 66.7601 17.4309 66.7685 17.4309L69.3771 17.4295C69.3849 17.4296 69.3924 17.4268 69.3983 17.4217C69.4042 17.4166 69.408 17.4095 69.409 17.4018L69.5045 16.6126C69.5054 16.605 69.5036 16.5972 69.4992 16.5909C69.4949 16.5845 69.4884 16.5799 69.481 16.578L66.7789 15.8517ZM78.715 18.4984L76.9461 20.169C76.9432 20.1717 76.9398 20.1738 76.9361 20.1752C76.9324 20.1765 76.9284 20.1771 76.9245 20.1768C76.9206 20.1765 76.9168 20.1755 76.9134 20.1736C76.9099 20.1718 76.907 20.1693 76.9046 20.1662L74.9211 17.5756C74.9113 17.5629 74.8971 17.5545 74.8812 17.5518C74.8653 17.5491 74.849 17.5524 74.8353 17.5611L70.6717 20.2617C70.6659 20.2655 70.6612 20.2709 70.6584 20.2773C70.6555 20.2837 70.6546 20.2908 70.6557 20.2977C70.6568 20.3046 70.6599 20.311 70.6646 20.3162C70.6693 20.3214 70.6754 20.3251 70.6821 20.3268C72.7798 20.8883 75.0541 21.3113 76.1991 23.4339C76.2021 23.4394 76.2064 23.444 76.2118 23.4471C76.2171 23.4503 76.2232 23.4519 76.2295 23.4519C76.2357 23.4518 76.2418 23.45 76.247 23.4467C76.2523 23.4434 76.2566 23.4388 76.2594 23.4332C77.3138 21.3826 79.5921 20.8834 81.6331 20.3677C81.6434 20.3651 81.6527 20.3595 81.6598 20.3517C81.667 20.3438 81.6716 20.3341 81.6733 20.3236C81.6749 20.3131 81.6734 20.3023 81.6689 20.2927C81.6645 20.2831 81.6573 20.2749 81.6483 20.2694L78.7627 18.4936C78.7452 18.483 78.7293 18.4846 78.715 18.4984ZM69.0954 19.7709C69.1045 19.7749 69.1147 19.776 69.1245 19.774C69.1343 19.772 69.1432 19.7671 69.1501 19.7598L69.5135 19.377C69.5185 19.3718 69.5223 19.3656 69.5245 19.3587C69.5268 19.3519 69.5275 19.3447 69.5267 19.3375L69.409 18.432C69.4075 18.4202 69.4017 18.4095 69.3928 18.4017C69.3838 18.3939 69.3724 18.3896 69.3605 18.3897H66.7782C66.7717 18.3897 66.7652 18.3911 66.7592 18.3936C66.7532 18.3962 66.7477 18.3999 66.7432 18.4047C66.7387 18.4094 66.7351 18.415 66.7328 18.4211C66.7305 18.4272 66.7295 18.4338 66.7297 18.4403L66.7429 18.7158C66.7434 18.7248 66.7464 18.7334 66.7516 18.7407C66.7567 18.748 66.7638 18.7538 66.772 18.7574L69.0954 19.7709ZM83.0668 18.4133L82.9699 19.3991C82.9681 19.4204 82.9748 19.4386 82.99 19.4538L83.2807 19.7453C83.2992 19.7637 83.3207 19.7681 83.3451 19.7584C84.2382 19.404 85.1163 19.0154 85.9794 18.5926C86.0057 18.5797 86.0188 18.5587 86.0188 18.5296V18.4244C86.0188 18.4013 86.0073 18.3897 85.9842 18.3897H83.0924C83.086 18.3897 83.0798 18.3921 83.075 18.3965C83.0703 18.4009 83.0673 18.4069 83.0668 18.4133ZM80.8625 21.7461C78.589 22.3324 76.8596 23.1978 76.8229 25.8667C76.8128 26.5922 76.8088 27.3161 76.8111 28.0384C76.8111 28.0422 76.8119 28.0459 76.8134 28.0493C76.8148 28.0527 76.817 28.0558 76.8198 28.0583C76.8225 28.0608 76.8257 28.0628 76.8292 28.064C76.8328 28.0652 76.8365 28.0657 76.8402 28.0654C81.4212 27.7276 85.1521 24.5139 85.8984 19.9447C85.8993 19.9395 85.8987 19.9343 85.8968 19.9294C85.8949 19.9246 85.8917 19.9204 85.8875 19.9172C85.8834 19.9141 85.8785 19.9121 85.8733 19.9116C85.8681 19.9111 85.8629 19.912 85.8582 19.9142C84.2458 20.6861 82.5954 21.2995 80.8625 21.7461ZM75.4334 24.5284C74.9765 22.9174 73.3081 22.1677 71.8314 21.8104C70.1013 21.3923 68.5194 20.7997 66.9333 20.0804C66.8825 20.0573 66.8617 20.0732 66.871 20.1281C67.6311 24.5776 71.0657 27.7193 75.601 28.0661C75.6054 28.0665 75.6098 28.066 75.614 28.0646C75.6182 28.0631 75.6221 28.0608 75.6253 28.0578C75.6286 28.0548 75.6312 28.0512 75.6329 28.0471C75.6347 28.0431 75.6356 28.0387 75.6356 28.0343C75.6363 26.8857 75.7332 25.5863 75.4334 24.5284Z" fill="white"/>
<path d="M71.1689 0.271364L74.0482 11.3504C74.052 11.365 74.0504 11.3805 74.0436 11.3939C74.0369 11.4074 74.0255 11.418 74.0115 11.4237L73.3344 11.7007C73.3198 11.7066 73.3035 11.7069 73.2886 11.7017C73.2737 11.6965 73.2612 11.686 73.2534 11.6723L66.8509 0.313595C66.8491 0.310364 66.8503 0.305748 66.8544 0.299748C66.8567 0.296518 66.8583 0.292825 66.8593 0.288671L66.878 0.274825C66.8858 0.269287 66.8946 0.266518 66.9043 0.266518L71.1689 0.271364Z" fill="#21397D"/>
<path d="M75.7726 0.28867V11.0229C75.7726 11.0497 75.7595 11.0647 75.7332 11.0679L75.0325 11.1565C75.0048 11.1597 74.9875 11.148 74.9806 11.1212L72.1726 0.28867C72.1781 0.287747 72.183 0.284747 72.1871 0.27967C72.1936 0.272285 72.2015 0.268593 72.2107 0.268593C73.3747 0.268593 74.5389 0.268593 75.7034 0.268593C75.7149 0.268593 75.738 0.275285 75.7726 0.28867Z" fill="#21397D"/>
<path d="M80.3967 0.285903L77.5679 11.1136C77.5582 11.1505 77.5344 11.1667 77.4966 11.1621L76.7565 11.0714C76.7385 11.0695 76.7295 11.0596 76.7295 11.0416L76.7392 0.285903C77.9581 0.256826 79.1773 0.256826 80.3967 0.285903Z" fill="#21397D"/>
<path d="M85.7073 0.28867L79.2619 11.7152C79.2575 11.7229 79.2504 11.7288 79.242 11.7316C79.2335 11.7344 79.2243 11.734 79.2162 11.7304L78.5322 11.4438C78.4943 11.4281 78.4805 11.4004 78.4906 11.3607L81.3803 0.28867C81.3905 0.290516 81.3997 0.288208 81.408 0.281747C81.4187 0.272977 81.4309 0.268593 81.4447 0.268593C82.8423 0.268593 84.24 0.268593 85.638 0.268593C85.6496 0.268593 85.6726 0.275285 85.7073 0.28867Z" fill="#21397D"/>
<path d="M88.7008 0.284517C88.7031 6.3039 88.7026 12.3201 88.6994 18.333C88.6989 18.9145 88.6823 19.3756 88.6495 19.7162C88.1116 25.3073 83.8629 29.9118 78.3217 30.8395C71.0601 32.0552 64.3945 26.7923 63.8151 19.4961C63.7897 19.1767 63.7772 18.7156 63.7777 18.1128C63.7791 13.8122 63.7791 9.51344 63.7777 5.21652C63.7777 5.21224 63.7768 5.20801 63.7752 5.20406C63.7736 5.20012 63.7712 5.19653 63.7682 5.19351C63.7651 5.19049 63.7616 5.18809 63.7576 5.18645C63.7537 5.18482 63.7494 5.18398 63.7452 5.18398H48.4071C48.4026 5.18398 48.3982 5.18486 48.3941 5.18656C48.39 5.18826 48.3862 5.19076 48.3831 5.19391C48.3799 5.19706 48.3774 5.2008 48.3757 5.20492C48.374 5.20903 48.3731 5.21345 48.3731 5.2179L48.3683 34.8992L47.1755 34.8999L47.1789 5.21721C47.1789 5.2084 47.1754 5.19994 47.1692 5.19371C47.163 5.18748 47.1545 5.18398 47.1457 5.18398H31.8138V3.98975L64.9276 4.01259C64.9576 4.01259 64.9726 4.02759 64.9726 4.05759C64.9731 8.76621 64.9728 13.4744 64.9719 18.1821C64.9719 18.7756 64.9878 19.2367 65.0197 19.5653C65.6248 25.8009 71.1535 30.3909 77.4238 29.7318C82.8175 29.1648 86.9617 24.84 87.4601 19.4919C87.4911 19.1601 87.5065 18.6987 87.5065 18.108C87.5075 12.1684 87.5077 6.22867 87.5072 0.288671C87.9055 0.257286 88.3034 0.255901 88.7008 0.284517Z" fill="#21397D"/>
<path d="M48.3684 34.8992L48.3733 5.2179C48.3733 5.21345 48.3741 5.20904 48.3758 5.20492C48.3775 5.20081 48.38 5.19707 48.3832 5.19392C48.3863 5.19077 48.3901 5.18827 48.3942 5.18656C48.3983 5.18486 48.4027 5.18398 48.4072 5.18398H63.7453C63.7495 5.18398 63.7538 5.18482 63.7577 5.18646C63.7617 5.18809 63.7652 5.19049 63.7683 5.19351C63.7713 5.19653 63.7737 5.20012 63.7753 5.20407C63.777 5.20801 63.7778 5.21224 63.7778 5.21652C63.7792 9.51344 63.7792 13.8122 63.7778 18.1128C63.7773 18.7156 63.7898 19.1767 63.8152 19.4961C64.3946 26.7923 71.0602 32.0552 78.3218 30.8395C83.863 29.9118 88.1117 25.3073 88.6496 19.7162C88.6824 19.3756 88.699 18.9145 88.6995 18.333C88.7027 12.3201 88.7032 6.3039 88.7009 0.284518L93.8399 0.272057C93.8498 0.272057 93.8593 0.275922 93.8663 0.282804C93.8733 0.289685 93.8773 0.299017 93.8773 0.308749C93.8763 6.30644 93.8763 12.2931 93.8773 18.2686C93.8773 18.8598 93.8666 19.3211 93.8454 19.6525C93.1794 30.0295 83.6623 37.6691 73.3919 35.9626C64.783 34.5316 58.618 27.1495 58.6063 18.4375C58.6021 15.4084 58.6016 12.3777 58.6049 9.34544C58.6049 9.33883 58.6022 9.33249 58.5976 9.32782C58.5929 9.32314 58.5866 9.32052 58.5799 9.32052H53.6362C53.627 9.32052 53.6182 9.32417 53.6117 9.33066C53.6052 9.33715 53.6016 9.34595 53.6016 9.35513V34.8667C53.6016 34.8757 53.598 34.8843 53.5916 34.8907C53.5853 34.897 53.5766 34.9006 53.5676 34.9006L48.3684 34.8992Z" fill="white"/>
<path d="M119.7 7.68736V10.0017C119.7 10.0093 119.697 10.0165 119.691 10.0218C119.686 10.0271 119.679 10.0301 119.671 10.0301H112.563C112.555 10.0301 112.548 10.0271 112.542 10.0218C112.537 10.0165 112.534 10.0093 112.534 10.0017V0.972669C112.534 0.965141 112.537 0.957921 112.542 0.952598C112.548 0.947275 112.555 0.944284 112.563 0.944284L115.569 0.942207C115.577 0.942207 115.584 0.945198 115.589 0.950521C115.595 0.955844 115.598 0.963064 115.598 0.970592V7.63059C115.598 7.63812 115.601 7.64534 115.606 7.65066C115.611 7.65599 115.618 7.65898 115.626 7.65898H119.671C119.679 7.65898 119.686 7.66197 119.691 7.66729C119.697 7.67261 119.7 7.67983 119.7 7.68736Z" fill="white"/>
<path d="M128.601 5.94759L126.668 9.20559C126.666 9.20889 126.663 9.21164 126.66 9.21358C126.657 9.21552 126.653 9.21659 126.649 9.21667H125.33C125.326 9.21666 125.323 9.2157 125.32 9.21388C125.316 9.21207 125.313 9.20945 125.312 9.20629L123.375 6.08398C123.373 6.07994 123.369 6.07684 123.364 6.07515C123.36 6.07346 123.355 6.07326 123.35 6.07458C123.346 6.07591 123.342 6.07868 123.339 6.0825C123.336 6.08632 123.334 6.09096 123.334 6.09575V10.008C123.334 10.0139 123.332 10.0195 123.328 10.0236C123.324 10.0278 123.318 10.0301 123.312 10.0301H120.57C120.564 10.0301 120.558 10.0278 120.554 10.0236C120.55 10.0195 120.548 10.0139 120.548 10.008V0.965056C120.548 0.95918 120.55 0.953545 120.554 0.94939C120.558 0.945236 120.564 0.942902 120.57 0.942902L123.057 0.944286C123.061 0.944299 123.065 0.945258 123.068 0.947074C123.071 0.94889 123.074 0.951503 123.076 0.954671L126.009 5.75306C126.011 5.75632 126.014 5.759 126.017 5.76084C126.02 5.76268 126.024 5.76361 126.028 5.76354C126.032 5.76347 126.035 5.7624 126.039 5.76044C126.042 5.75848 126.045 5.7557 126.047 5.75236L128.903 0.953979C128.905 0.950682 128.908 0.947931 128.911 0.945991C128.914 0.944051 128.918 0.942987 128.922 0.942902L131.409 0.944286C131.415 0.944286 131.42 0.94662 131.424 0.950775C131.428 0.95493 131.431 0.960565 131.431 0.96644L131.456 10.008C131.456 10.0139 131.454 10.0195 131.45 10.0236C131.446 10.0278 131.44 10.0301 131.434 10.0301H128.687C128.681 10.0301 128.675 10.0278 128.671 10.0236C128.667 10.0195 128.664 10.0139 128.664 10.008L128.642 5.95867C128.642 5.95373 128.641 5.9489 128.638 5.94496C128.635 5.94102 128.631 5.93818 128.626 5.93691C128.621 5.93564 128.616 5.936 128.611 5.93793C128.607 5.93987 128.603 5.94327 128.601 5.94759Z" fill="white"/>
<path d="M150.647 1.94813L150.645 3.28013C150.645 3.30321 150.634 3.31475 150.611 3.31475H148.032C148.018 3.31475 148.006 3.32007 147.996 3.32955C147.987 3.33903 147.982 3.35188 147.982 3.36528C147.979 4.83667 147.979 6.30644 147.982 7.77459C147.983 8.34159 148.012 9.25544 147.973 10.0017C147.971 10.0207 147.961 10.0301 147.943 10.0301H145.021C144.952 10.0301 144.918 9.99551 144.918 9.92628L144.917 3.34936C144.917 3.32628 144.905 3.31475 144.882 3.31475H142.303C142.28 3.31475 142.269 3.30321 142.269 3.28013V0.978207C142.269 0.95513 142.28 0.943592 142.303 0.943592H153.294C153.318 0.943592 153.336 0.953977 153.348 0.974746L155.161 4.04028C155.163 4.0446 155.167 4.04818 155.171 4.05067C155.176 4.05316 155.181 4.05447 155.186 4.05447C155.191 4.05447 155.195 4.05316 155.2 4.05067C155.204 4.04818 155.208 4.0446 155.21 4.04028L157.035 0.974746C157.047 0.954438 157.065 0.944284 157.088 0.944284L159.975 0.942207C159.979 0.942236 159.983 0.943296 159.986 0.945283C159.99 0.94727 159.992 0.950116 159.994 0.95354C159.996 0.956965 159.997 0.960849 159.997 0.96481C159.997 0.968771 159.996 0.972673 159.994 0.97613L156.601 6.70705C156.588 6.72828 156.582 6.75113 156.582 6.77559V9.99551C156.582 10.0186 156.571 10.0301 156.548 10.0301H153.553C153.544 10.0301 153.535 10.0265 153.529 10.02C153.522 10.0135 153.519 10.0047 153.519 9.99551V6.72436C153.519 6.69944 153.513 6.67659 153.5 6.65582L150.689 1.93636C150.687 1.93217 150.683 1.92894 150.678 1.92715C150.674 1.92537 150.669 1.92512 150.664 1.92644C150.659 1.92777 150.655 1.93059 150.652 1.9345C150.649 1.93841 150.647 1.9432 150.647 1.94813Z" fill="white"/>
<path d="M105.064 0.943595H108.054C108.058 0.943526 108.062 0.944673 108.066 0.946891C108.069 0.949108 108.072 0.952298 108.074 0.956057L112.026 10.0011C112.027 10.0042 112.028 10.0077 112.028 10.0112C112.027 10.0147 112.026 10.018 112.024 10.0209C112.022 10.0238 112.02 10.0261 112.017 10.0278C112.014 10.0294 112.01 10.0302 112.007 10.0301H108.886C108.882 10.0301 108.878 10.0289 108.875 10.0266C108.871 10.0242 108.869 10.0209 108.867 10.017L108.263 8.45098C108.262 8.44709 108.259 8.44376 108.256 8.44141C108.252 8.43906 108.248 8.43781 108.244 8.43783H104.821C104.817 8.43781 104.813 8.43906 104.81 8.44141C104.806 8.44376 104.803 8.44709 104.802 8.45098L104.201 10.017C104.199 10.0209 104.197 10.0242 104.193 10.0266C104.19 10.0289 104.186 10.0301 104.182 10.0301H101.11C101.107 10.0302 101.104 10.0294 101.1 10.0278C101.097 10.0261 101.095 10.0238 101.093 10.0209C101.091 10.018 101.09 10.0147 101.089 10.0112C101.089 10.0077 101.09 10.0042 101.091 10.0011L105.044 0.956057C105.046 0.952298 105.049 0.949108 105.052 0.946891C105.055 0.944673 105.059 0.943526 105.064 0.943595ZM105.659 6.21067C105.658 6.21392 105.657 6.21742 105.658 6.22087C105.658 6.22432 105.659 6.22762 105.661 6.23048C105.663 6.23334 105.666 6.23568 105.669 6.23729C105.672 6.23891 105.676 6.23975 105.679 6.23975H107.385C107.388 6.23975 107.392 6.23891 107.395 6.23729C107.398 6.23568 107.401 6.23334 107.403 6.23048C107.405 6.22762 107.406 6.22432 107.406 6.22087C107.407 6.21742 107.406 6.21392 107.405 6.21067L106.552 4.00221C106.55 3.99813 106.548 3.99462 106.544 3.99214C106.541 3.98966 106.536 3.98833 106.532 3.98833C106.528 3.98833 106.523 3.98966 106.52 3.99214C106.516 3.99462 106.513 3.99813 106.512 4.00221L105.659 6.21067Z" fill="white"/>
<path d="M135.941 0.943592H138.919C138.925 0.943625 138.931 0.945408 138.936 0.948727C138.941 0.952045 138.945 0.956755 138.947 0.962284L142.891 9.98651C142.893 9.99124 142.894 9.99641 142.894 10.0015C142.893 10.0067 142.892 10.0116 142.889 10.016C142.886 10.0203 142.882 10.0239 142.878 10.0263C142.873 10.0288 142.868 10.0301 142.863 10.0301H139.765C139.759 10.0301 139.752 10.0282 139.747 10.0246C139.742 10.021 139.738 10.016 139.736 10.0101L139.137 8.4579C139.135 8.452 139.131 8.44692 139.125 8.44334C139.12 8.43975 139.114 8.43783 139.108 8.43782H135.7C135.694 8.43783 135.688 8.43975 135.683 8.44334C135.677 8.44692 135.673 8.452 135.671 8.4579L135.074 10.0101C135.071 10.016 135.068 10.021 135.062 10.0246C135.057 10.0282 135.051 10.0301 135.045 10.0301H131.999C131.993 10.0301 131.988 10.0288 131.984 10.0263C131.979 10.0239 131.975 10.0203 131.973 10.016C131.97 10.0116 131.968 10.0067 131.968 10.0015C131.967 9.99641 131.968 9.99124 131.97 9.98651L135.913 0.962284C135.915 0.956755 135.919 0.952045 135.924 0.948727C135.929 0.945408 135.935 0.943625 135.941 0.943592ZM136.532 6.20859C136.53 6.21207 136.53 6.21583 136.53 6.21953C136.531 6.22324 136.532 6.22679 136.534 6.22986C136.536 6.23293 136.539 6.23544 136.542 6.23717C136.546 6.23889 136.549 6.23978 136.553 6.23975H138.255C138.259 6.23978 138.262 6.23889 138.266 6.23717C138.269 6.23544 138.272 6.23293 138.274 6.22986C138.276 6.22679 138.277 6.22324 138.278 6.21953C138.278 6.21583 138.278 6.21207 138.276 6.20859L137.426 4.00428C137.424 3.99988 137.421 3.99608 137.417 3.9934C137.413 3.99071 137.409 3.98927 137.404 3.98927C137.399 3.98927 137.395 3.99071 137.391 3.9934C137.387 3.99608 137.384 3.99988 137.383 4.00428L136.532 6.20859Z" fill="white"/>
<path d="M86.0188 2.02151V7.4499C86.0188 7.45614 86.0163 7.46211 86.0119 7.46651L80.7579 12.7204C80.7539 12.7245 80.7485 12.727 80.7428 12.7274C80.737 12.7278 80.7313 12.726 80.7268 12.7225L80.0975 12.2317C80.093 12.2281 80.09 12.2231 80.089 12.2175C80.088 12.2119 80.089 12.2061 80.0919 12.2012L85.9752 2.00975C85.9778 2.00541 85.9818 2.00204 85.9865 2.00016C85.9913 1.99827 85.9965 1.99797 86.0014 1.9993C86.0063 2.00062 86.0107 2.0035 86.0138 2.00751C86.0169 2.01152 86.0187 2.01643 86.0188 2.02151Z" fill="#21397D"/>
<path d="M66.7761 2.36352L72.4364 12.1714C72.4394 12.1763 72.4404 12.1821 72.4394 12.1877C72.4384 12.1933 72.4353 12.1984 72.4309 12.2019L71.7961 12.6969C71.7915 12.7004 71.7858 12.7022 71.7801 12.7018C71.7743 12.7014 71.7689 12.6989 71.7649 12.6948L66.7457 7.6749C66.7413 7.6705 66.7388 7.66452 66.7387 7.65829L66.7318 2.37529C66.7317 2.36998 66.7333 2.36477 66.7365 2.36051C66.7397 2.35625 66.7442 2.35319 66.7493 2.35182C66.7544 2.35046 66.7599 2.35087 66.7648 2.353C66.7696 2.35512 66.7736 2.35883 66.7761 2.36352Z" fill="#21397D"/>
<path d="M36.7611 34.8812L35.4803 34.8985L31.2012 24.7216C31.1924 24.7004 31.1765 24.6897 31.1534 24.6897H11.6483C11.6243 24.6897 11.6075 24.7008 11.5978 24.723L7.21687 34.8812L5.90149 34.8985L19.2374 4.00982C19.2399 4.00389 19.2441 3.99881 19.2495 3.99524C19.2549 3.99167 19.2613 3.98975 19.2679 3.98975H23.761C23.7699 3.98974 23.7786 3.99238 23.786 3.99731C23.7934 4.00225 23.7992 4.00925 23.8025 4.01744L36.7694 34.8639C36.7703 34.8667 36.7692 34.8699 36.766 34.8736C36.7636 34.8764 36.762 34.8789 36.7611 34.8812ZM12.1496 23.4436C12.1472 23.4492 12.1462 23.4554 12.1468 23.4615C12.1473 23.4676 12.1494 23.4735 12.1527 23.4786C12.1561 23.4837 12.1606 23.4879 12.166 23.4909C12.1714 23.4938 12.1774 23.4954 12.1835 23.4955H30.6307C30.6369 23.4955 30.643 23.494 30.6485 23.4911C30.6539 23.4882 30.6586 23.484 30.662 23.4789C30.6654 23.4737 30.6675 23.4678 30.6681 23.4616C30.6687 23.4555 30.6677 23.4493 30.6653 23.4436L23.0001 5.20682C22.9972 5.20002 22.9924 5.19422 22.9863 5.19016C22.9801 5.18609 22.9729 5.18394 22.9655 5.18398H20.0613C20.054 5.18408 20.0469 5.18629 20.0409 5.19035C20.0349 5.19441 20.0302 5.20013 20.0273 5.20682L12.1496 23.4436Z" fill="#21397D"/>
<path d="M12.1496 23.4436L20.0273 5.20682C20.0301 5.20013 20.0349 5.19441 20.0409 5.19035C20.0469 5.18629 20.054 5.18408 20.0612 5.18398H22.9655C22.9729 5.18394 22.9801 5.18609 22.9862 5.19016C22.9924 5.19422 22.9972 5.20002 23.0001 5.20682L30.6653 23.4436C30.6677 23.4493 30.6687 23.4555 30.6681 23.4616C30.6675 23.4678 30.6654 23.4737 30.662 23.4789C30.6586 23.484 30.6539 23.4882 30.6484 23.4911C30.643 23.494 30.6369 23.4955 30.6307 23.4955H12.1835C12.1773 23.4954 12.1713 23.4938 12.166 23.4909C12.1606 23.4879 12.156 23.4837 12.1527 23.4786C12.1493 23.4735 12.1473 23.4676 12.1468 23.4615C12.1462 23.4554 12.1472 23.4492 12.1496 23.4436ZM18.0203 20.4168C18.0188 20.4204 18.0183 20.4244 18.0187 20.4282C18.0191 20.4321 18.0204 20.4358 18.0226 20.4391C18.0248 20.4423 18.0278 20.4449 18.0312 20.4467C18.0347 20.4485 18.0386 20.4494 18.0425 20.4494H24.6955C24.6995 20.4494 24.7033 20.4485 24.7068 20.4467C24.7102 20.4449 24.7132 20.4423 24.7154 20.4391C24.7176 20.4358 24.719 20.4321 24.7194 20.4282C24.7198 20.4244 24.7192 20.4204 24.7177 20.4168L21.3912 11.8045C21.3895 11.8 21.3865 11.796 21.3826 11.7932C21.3786 11.7904 21.3739 11.7889 21.369 11.7889C21.3642 11.7889 21.3594 11.7904 21.3555 11.7932C21.3515 11.796 21.3485 11.8 21.3469 11.8045L18.0203 20.4168Z" fill="white"/>
<path d="M81.9211 14.058L81.4323 13.4231C81.4291 13.4189 81.4275 13.4136 81.4279 13.4082C81.4283 13.4029 81.4306 13.3978 81.4344 13.3941L85.9808 8.84836C85.9838 8.8452 85.9878 8.84302 85.9921 8.8421C85.9964 8.84118 86.0009 8.84156 86.0049 8.84319C86.009 8.84483 86.0125 8.84764 86.015 8.85127C86.0175 8.85491 86.0188 8.85919 86.0189 8.86359V11.6986C86.0188 11.7024 86.0177 11.7061 86.0158 11.7094C86.0138 11.7127 86.0111 11.7154 86.0078 11.7173L81.9495 14.0635C81.9449 14.0661 81.9395 14.067 81.9343 14.066C81.9291 14.065 81.9244 14.0621 81.9211 14.058Z" fill="#21397D"/>
<path d="M71.0857 13.3961L70.5845 14.0331C70.5813 14.0372 70.5768 14.04 70.5717 14.041C70.5666 14.042 70.5613 14.0412 70.5568 14.0386L66.7498 11.8419C66.7466 11.84 66.7439 11.8372 66.7421 11.8339C66.7403 11.8307 66.7394 11.827 66.7394 11.8232L66.736 9.07544C66.7359 9.07118 66.7372 9.06701 66.7395 9.06346C66.7419 9.05991 66.7453 9.05714 66.7492 9.05551C66.7531 9.05387 66.7575 9.05345 66.7616 9.05429C66.7658 9.05512 66.7697 9.05718 66.7727 9.06021L71.0844 13.3677C71.088 13.3715 71.0902 13.3765 71.0904 13.3817C71.0907 13.3869 71.089 13.392 71.0857 13.3961Z" fill="#21397D"/>
<path d="M78.6077 15.1317L77.448 16.2741C77.4277 16.2944 77.4074 16.2944 77.3871 16.2741L75.0499 13.9375C75.0448 13.9323 75.0388 13.9282 75.0321 13.9254C75.0254 13.9226 75.0183 13.9212 75.011 13.9212C75.0037 13.9212 74.9965 13.9226 74.9897 13.9254C74.983 13.9282 74.9768 13.9323 74.9717 13.9375L70.4121 18.4977C70.409 18.501 70.4051 18.5033 70.4007 18.5043C70.3964 18.5054 70.3918 18.5051 70.3876 18.5035C70.3834 18.502 70.3797 18.4992 70.3771 18.4956C70.3744 18.492 70.3729 18.4877 70.3727 18.4832C70.1144 15.0286 72.6379 12.1071 76.1195 12.0205C79.6994 11.9312 82.3828 14.9711 82.1107 18.4687C82.1099 18.4773 82.1067 18.4855 82.1015 18.4923C82.0962 18.4992 82.0891 18.5044 82.0809 18.5074C82.0728 18.5104 82.064 18.511 82.0556 18.5091C82.0471 18.5073 82.0394 18.5031 82.0332 18.4971L78.6679 15.1317C78.648 15.1119 78.628 15.1119 78.6077 15.1317Z" fill="#21397D"/>
<path d="M149.535 16.7448C150.36 11.1503 159.488 11.43 159.733 17.2772C159.831 19.6318 158.299 21.537 156.031 22.0638C152.565 22.8697 148.969 20.5906 149.535 16.7448ZM156.468 16.4603C155.844 14.9123 153.691 14.7427 152.882 16.2111C152.12 17.595 152.761 19.6221 154.497 19.7349C156.271 19.8491 157.046 17.8954 156.468 16.4603Z" fill="white"/>
<path d="M174.586 12.8104C177.349 13.2653 179.057 15.6766 178.547 18.4424C178.31 19.728 177.473 20.8544 176.333 21.4982C173.22 23.2567 168.683 21.7786 168.398 17.8262C168.14 14.2518 171.344 12.276 174.586 12.8104ZM173.692 15.2141C172.319 15.0888 171.499 16.1799 171.47 17.4454C171.438 18.864 172.57 20.0755 174.04 19.6643C176.221 19.053 176.006 15.4253 173.692 15.2141Z" fill="white"/>
<path d="M123.766 22.2161C121.362 22.1358 119.304 20.6148 118.981 18.1523C118.648 15.6115 120.196 13.3629 122.711 12.8541C124.672 12.4574 126.74 12.9004 128.043 14.4865C128.053 14.4993 128.058 14.5155 128.057 14.5317C128.055 14.548 128.048 14.563 128.036 14.5737L126.196 16.2152C126.156 16.2503 126.121 16.2468 126.088 16.2048C124.959 14.7399 122.485 14.8147 122.084 16.8888C121.891 17.8823 122.177 19.0094 123.106 19.4926C123.914 19.9142 124.872 19.7889 125.596 19.2337C125.699 19.1547 125.874 18.9807 126.122 18.7117C126.14 18.6918 126.159 18.6909 126.179 18.7089L128.056 20.3857C128.065 20.3939 128.071 20.4053 128.071 20.4174C128.072 20.4296 128.068 20.4415 128.061 20.4507C126.931 21.7668 125.459 22.2722 123.766 22.2161Z" fill="white"/>
<path d="M185.764 19.4919L185.762 17.2827C185.762 17.2688 185.768 17.2554 185.778 17.2455C185.787 17.2357 185.801 17.2301 185.814 17.2301H188.394C188.417 17.2301 188.428 17.2417 188.428 17.2647V21.0364C188.428 21.0577 188.42 21.0743 188.402 21.0863C187.022 22.014 185.191 22.3643 183.582 22.1621C180.723 21.8042 178.958 19.2904 179.496 16.4921C180.133 13.1677 183.766 12.1008 186.624 13.0486C187.416 13.3117 188.097 13.7785 188.668 14.4491C188.682 14.4653 188.681 14.4803 188.665 14.4941L186.761 16.1702C186.741 16.1882 186.722 16.1871 186.704 16.1667C185.866 15.2183 184.4 14.8181 183.321 15.6004C182.358 16.299 182.255 17.8899 182.848 18.8363C183.449 19.7937 184.735 19.9274 185.739 19.5293C185.756 19.5228 185.764 19.5104 185.764 19.4919Z" fill="white"/>
<path d="M201.091 16.2297C199.889 14.5834 197.22 14.9157 197.03 17.1893C196.813 19.7695 199.657 20.6411 201.092 18.7117C201.096 18.7063 201.101 18.7018 201.107 18.6985C201.113 18.6951 201.119 18.693 201.126 18.6923C201.132 18.6916 201.139 18.6923 201.145 18.6943C201.151 18.6963 201.157 18.6996 201.162 18.7041L203.02 20.3628C203.057 20.3956 203.059 20.4304 203.027 20.4674C201.564 22.1905 199.204 22.59 197.143 21.9254C194.709 21.1403 193.461 18.6985 194.071 16.2484C194.777 13.4162 197.693 12.3134 200.331 12.8603C201.438 13.0897 202.338 13.6329 203.031 14.49C203.056 14.52 203.053 14.5479 203.024 14.5737L201.161 16.2374C201.156 16.2418 201.15 16.2452 201.144 16.2473C201.138 16.2493 201.131 16.25 201.124 16.2493C201.118 16.2486 201.111 16.2465 201.105 16.2431C201.1 16.2397 201.095 16.2352 201.091 16.2297Z" fill="white"/>
<path d="M86.0188 12.8838V14.7621C86.0188 14.7706 86.0159 14.7789 86.0107 14.7857C86.0054 14.7925 85.998 14.7973 85.9897 14.7994L82.7615 15.6607C82.7525 15.6631 82.7429 15.6622 82.7345 15.6581C82.7261 15.654 82.7195 15.6471 82.7158 15.6385L82.4188 14.9317C82.415 14.9229 82.4146 14.913 82.4177 14.9039C82.4208 14.8948 82.4271 14.8872 82.4354 14.8825L85.9607 12.8499C85.9666 12.8465 85.9733 12.8447 85.9801 12.8447C85.987 12.8447 85.9937 12.8465 85.9996 12.85C86.0055 12.8534 86.0104 12.8584 86.0138 12.8643C86.0171 12.8703 86.0189 12.877 86.0188 12.8838Z" fill="#21397D"/>
<path d="M107.1 15.3484V21.9842C107.1 21.9949 107.095 22.0051 107.088 22.0126C107.08 22.0201 107.07 22.0244 107.059 22.0244H104.076C104.066 22.0244 104.055 22.0201 104.048 22.0126C104.04 22.0051 104.036 21.9949 104.036 21.9842V15.3471C104.036 15.3364 104.032 15.3262 104.024 15.3187C104.017 15.3111 104.007 15.3069 103.996 15.3069L101.411 15.3097C101.4 15.3097 101.39 15.3054 101.382 15.2979C101.375 15.2904 101.371 15.2802 101.371 15.2695V12.9607C101.371 12.95 101.375 12.9398 101.382 12.9323C101.39 12.9247 101.4 12.9205 101.411 12.9205H109.725C109.735 12.9205 109.746 12.9247 109.753 12.9323C109.761 12.9398 109.765 12.95 109.765 12.9607V15.2667C109.765 15.2774 109.761 15.2876 109.753 15.2951C109.746 15.3027 109.735 15.3069 109.725 15.3069L107.14 15.3083C107.129 15.3083 107.119 15.3125 107.111 15.32C107.104 15.3276 107.1 15.3378 107.1 15.3484Z" fill="white"/>
<path d="M113.607 19.7051H118.091C118.1 19.7051 118.108 19.7087 118.115 19.7151C118.121 19.7214 118.125 19.7301 118.125 19.7391V21.9904C118.125 21.9994 118.121 22.0081 118.115 22.0144C118.108 22.0208 118.1 22.0244 118.091 22.0244H110.595C110.586 22.0244 110.577 22.0208 110.571 22.0144C110.565 22.0081 110.561 21.9994 110.561 21.9904V12.9544C110.561 12.9454 110.565 12.9368 110.571 12.9305C110.577 12.9241 110.586 12.9205 110.595 12.9205H117.918C117.927 12.9205 117.935 12.9241 117.942 12.9305C117.948 12.9368 117.952 12.9454 117.952 12.9544V15.2058C117.952 15.2103 117.951 15.2147 117.949 15.2188C117.947 15.2229 117.945 15.2267 117.942 15.2298C117.938 15.233 117.935 15.2355 117.931 15.2372C117.926 15.2389 117.922 15.2397 117.918 15.2397H113.607C113.598 15.2397 113.589 15.2433 113.583 15.2497C113.576 15.256 113.573 15.2647 113.573 15.2737V16.2623C113.573 16.2713 113.576 16.2799 113.583 16.2863C113.589 16.2926 113.598 16.2962 113.607 16.2962L117.381 16.2955C117.39 16.2955 117.399 16.2991 117.405 16.3055C117.411 16.3118 117.415 16.3204 117.415 16.3294V18.477C117.415 18.4814 117.414 18.4858 117.412 18.49C117.411 18.4941 117.408 18.4978 117.405 18.501C117.402 18.5041 117.398 18.5066 117.394 18.5083C117.39 18.51 117.386 18.5109 117.381 18.5109H113.607C113.598 18.5109 113.589 18.5145 113.583 18.5208C113.576 18.5272 113.573 18.5358 113.573 18.5448V19.6712C113.573 19.6802 113.576 19.6888 113.583 19.6952C113.589 19.7016 113.598 19.7051 113.607 19.7051Z" fill="white"/>
<path d="M132.023 18.7089V21.9821C132.023 21.9933 132.018 22.0041 132.01 22.012C132.002 22.0199 131.992 22.0244 131.98 22.0244H129.001C128.99 22.0244 128.98 22.0199 128.972 22.012C128.964 22.0041 128.959 21.9933 128.959 21.9821V12.9627C128.959 12.9515 128.964 12.9408 128.972 12.9329C128.98 12.925 128.99 12.9205 129.001 12.9205H131.98C131.992 12.9205 132.002 12.925 132.01 12.9329C132.018 12.9408 132.023 12.9515 132.023 12.9627V16.0989C132.023 16.1101 132.027 16.1208 132.035 16.1288C132.043 16.1367 132.054 16.1411 132.065 16.1411L134.819 16.1391C134.83 16.1391 134.841 16.1346 134.849 16.1267C134.857 16.1188 134.861 16.108 134.861 16.0968V12.9627C134.861 12.9515 134.866 12.9408 134.874 12.9329C134.881 12.925 134.892 12.9205 134.903 12.9205H137.882C137.894 12.9205 137.904 12.925 137.912 12.9329C137.92 12.9408 137.925 12.9515 137.925 12.9627V21.9821C137.925 21.9933 137.92 22.0041 137.912 22.012C137.904 22.0199 137.894 22.0244 137.882 22.0244H134.903C134.892 22.0244 134.881 22.0199 134.874 22.012C134.866 22.0041 134.861 21.9933 134.861 21.9821V18.7089C134.861 18.6977 134.857 18.687 134.849 18.679C134.841 18.6711 134.83 18.6667 134.819 18.6667H132.065C132.054 18.6667 132.043 18.6711 132.035 18.679C132.027 18.687 132.023 18.6977 132.023 18.7089Z" fill="white"/>
<path d="M145.384 17.0127V12.9551C145.384 12.946 145.388 12.9371 145.394 12.9307C145.401 12.9242 145.41 12.9205 145.419 12.9205H148.327C148.336 12.9205 148.345 12.9242 148.351 12.9307C148.357 12.9371 148.361 12.946 148.361 12.9551V21.9891C148.361 21.9937 148.36 21.9983 148.358 22.0026C148.357 22.0069 148.354 22.0107 148.351 22.014C148.348 22.0173 148.344 22.0199 148.339 22.0217C148.335 22.0234 148.33 22.0244 148.326 22.0244C147.523 22.0248 146.722 22.0232 145.921 22.0195C145.869 22.0195 145.826 21.9999 145.793 21.9607C144.668 20.6107 143.542 19.2625 142.417 17.9162C142.415 17.9138 142.412 17.912 142.409 17.9112C142.406 17.9104 142.403 17.9105 142.4 17.9115C142.397 17.9126 142.395 17.9146 142.393 17.9171C142.391 17.9197 142.39 17.9228 142.39 17.9259V21.9897C142.39 21.9989 142.386 22.0077 142.38 22.0142C142.373 22.0207 142.365 22.0244 142.355 22.0244H139.448C139.434 22.0244 139.421 22.0189 139.411 22.0092C139.401 21.9994 139.396 21.9862 139.396 21.9724V12.9724C139.396 12.9378 139.413 12.9205 139.448 12.9205H141.87C141.903 12.9205 141.931 12.9334 141.952 12.9593L145.352 17.0245C145.354 17.0273 145.357 17.0292 145.361 17.0301C145.365 17.031 145.368 17.0308 145.372 17.0296C145.375 17.0283 145.378 17.026 145.381 17.023C145.383 17.02 145.384 17.0165 145.384 17.0127Z" fill="white"/>
<path d="M160.857 21.9801V12.9641C160.857 12.9526 160.862 12.9415 160.87 12.9333C160.878 12.9251 160.889 12.9205 160.901 12.9205H163.877C163.889 12.9205 163.9 12.9251 163.908 12.9333C163.916 12.9415 163.921 12.9526 163.921 12.9641V19.5923C163.921 19.6039 163.925 19.6149 163.934 19.6231C163.942 19.6313 163.953 19.6359 163.964 19.6359H167.979C167.991 19.6359 168.002 19.6405 168.01 19.6487C168.018 19.6569 168.023 19.668 168.023 19.6795V21.9807C168.023 21.9923 168.018 22.0034 168.01 22.0116C168.002 22.0198 167.991 22.0244 167.979 22.0244L160.901 22.0237C160.889 22.0237 160.878 22.0191 160.87 22.0109C160.862 22.0027 160.857 21.9916 160.857 21.9801Z" fill="white"/>
<path d="M192.762 12.9205H189.789C189.764 12.9205 189.743 12.941 189.743 12.9662V21.9787C189.743 22.0039 189.764 22.0244 189.789 22.0244H192.762C192.787 22.0244 192.807 22.0039 192.807 21.9787V12.9662C192.807 12.941 192.787 12.9205 192.762 12.9205Z" fill="white"/>
<path d="M209.996 20.4321H206.586C206.58 20.432 206.573 20.4341 206.567 20.4379C206.562 20.4418 206.558 20.4472 206.555 20.4535L205.96 22.0029C205.957 22.0092 205.953 22.0147 205.948 22.0185C205.942 22.0223 205.935 22.0244 205.929 22.0244H202.885C202.879 22.0244 202.874 22.023 202.869 22.0204C202.864 22.0177 202.86 22.014 202.857 22.0094C202.854 22.0048 202.852 21.9995 202.851 21.994C202.851 21.9885 202.852 21.983 202.854 21.978L206.803 12.9406C206.806 12.9346 206.81 12.9296 206.815 12.926C206.821 12.9224 206.827 12.9205 206.833 12.9205H209.801C209.807 12.9205 209.813 12.9224 209.819 12.926C209.824 12.9296 209.829 12.9346 209.831 12.9406L213.779 21.9759C213.782 21.981 213.782 21.9865 213.782 21.9919C213.781 21.9974 213.78 22.0027 213.777 22.0073C213.774 22.0119 213.769 22.0157 213.765 22.0183C213.76 22.0209 213.754 22.0223 213.749 22.0223L210.657 22.0251C210.65 22.0251 210.644 22.023 210.638 22.0192C210.633 22.0154 210.628 22.0099 210.626 22.0036L210.027 20.4535C210.025 20.4472 210.02 20.4418 210.015 20.4379C210.009 20.4341 210.003 20.432 209.996 20.4321ZM207.422 18.1841C207.42 18.1877 207.42 18.1917 207.42 18.1955C207.421 18.1994 207.422 18.2032 207.424 18.2064C207.426 18.2096 207.429 18.2122 207.433 18.214C207.436 18.2158 207.44 18.2167 207.444 18.2167H209.137C209.141 18.2167 209.145 18.2158 209.149 18.214C209.152 18.2122 209.155 18.2096 209.157 18.2064C209.159 18.2032 209.161 18.1994 209.161 18.1955C209.162 18.1917 209.161 18.1877 209.16 18.1841L208.313 15.9937C208.311 15.9891 208.308 15.9852 208.304 15.9824C208.3 15.9796 208.296 15.9781 208.291 15.9781C208.286 15.9781 208.281 15.9796 208.277 15.9824C208.273 15.9852 208.27 15.9891 208.269 15.9937L207.422 18.1841Z" fill="white"/>
<path d="M217.397 19.6359H221.422C221.434 19.6359 221.447 19.6409 221.456 19.6499C221.464 19.6589 221.47 19.671 221.47 19.6837L221.455 21.9766C221.455 21.9893 221.45 22.0014 221.441 22.0104C221.432 22.0193 221.42 22.0244 221.407 22.0244H214.334C214.321 22.0244 214.309 22.0193 214.3 22.0104C214.291 22.0014 214.286 21.9893 214.286 21.9766V12.9683C214.286 12.9556 214.291 12.9435 214.3 12.9345C214.309 12.9256 214.321 12.9205 214.334 12.9205H217.302C217.314 12.9205 217.327 12.9256 217.336 12.9345C217.345 12.9435 217.35 12.9556 217.35 12.9683V19.5881C217.35 19.6008 217.355 19.613 217.364 19.6219C217.373 19.6309 217.385 19.6359 217.397 19.6359Z" fill="white"/>
<path d="M66.7622 12.9579L70.0756 14.868C70.0802 14.8707 70.0837 14.875 70.0853 14.8801C70.087 14.8852 70.0867 14.8907 70.0846 14.8957L69.7689 15.6434C69.7669 15.6484 69.7631 15.6525 69.7583 15.6549C69.7534 15.6574 69.7479 15.6579 69.7426 15.6565L66.756 14.8514C66.7514 14.8502 66.7472 14.8475 66.7442 14.8438C66.7412 14.84 66.7395 14.8354 66.7394 14.8306L66.729 12.9773C66.729 12.9734 66.73 12.9695 66.7319 12.9661C66.7338 12.9627 66.7366 12.9599 66.74 12.958C66.7434 12.956 66.7472 12.9549 66.7511 12.9549C66.755 12.9549 66.7589 12.9559 66.7622 12.9579Z" fill="#21397D"/>
<path d="M75.0339 15.2868L77.392 17.6324C77.4118 17.6522 77.4319 17.6522 77.4522 17.6324L78.6104 16.4776C78.6275 16.4601 78.6448 16.4601 78.6623 16.4776L80.733 18.5448C80.7356 18.5473 80.7372 18.5506 80.7374 18.5542C80.7376 18.5577 80.7364 18.5612 80.7341 18.564C80.7318 18.5668 80.7286 18.5687 80.7249 18.5694C80.7213 18.5701 80.7175 18.5695 80.7143 18.5677L78.6429 17.2959C78.6236 17.2839 78.6056 17.286 78.589 17.3021L77.0596 18.747C77.0572 18.7494 77.0542 18.7513 77.0509 18.7525C77.0476 18.7537 77.0441 18.7542 77.0406 18.7539C77.037 18.7537 77.0336 18.7527 77.0304 18.751C77.0273 18.7493 77.0245 18.747 77.0223 18.7442L75.1274 16.2699C75.1228 16.2637 75.1159 16.2595 75.1082 16.2583C75.1005 16.257 75.0925 16.2587 75.0859 16.263L72.1526 18.1627C72.1484 18.1654 72.1432 18.1666 72.1382 18.1658C72.1332 18.165 72.1286 18.1625 72.1255 18.1586C72.1223 18.1547 72.1208 18.1498 72.1212 18.1449C72.1216 18.14 72.1239 18.1355 72.1276 18.1322L74.9723 15.2868C74.9807 15.2787 74.9918 15.2742 75.0033 15.2742C75.0149 15.2742 75.0259 15.2787 75.0339 15.2868Z" fill="#21397D"/>
<path d="M83.0807 17.3866L82.9872 16.6299C82.9861 16.6208 82.9883 16.6116 82.9933 16.604C82.9984 16.5963 83.0061 16.5908 83.0149 16.5884L85.9711 15.7991C85.9768 15.7976 85.9827 15.7975 85.9885 15.7987C85.9942 15.7998 85.9996 15.8023 86.0043 15.806C86.0089 15.8096 86.0126 15.8142 86.0151 15.8195C86.0177 15.8248 86.019 15.8306 86.0189 15.8365V17.3838C86.0189 17.3939 86.0148 17.4036 86.0077 17.4107C86.0006 17.4179 85.9909 17.4219 85.9808 17.4219L83.1188 17.4198C83.1095 17.4199 83.1005 17.4166 83.0934 17.4104C83.0864 17.4043 83.0819 17.3958 83.0807 17.3866Z" fill="#21397D"/>
<path d="M66.7789 15.8517L69.481 16.578C69.4884 16.5799 69.4949 16.5845 69.4993 16.5909C69.5036 16.5972 69.5055 16.605 69.5045 16.6126L69.409 17.4018C69.408 17.4095 69.4042 17.4166 69.3983 17.4217C69.3925 17.4268 69.3849 17.4296 69.3772 17.4295L66.7685 17.4309C66.7601 17.4309 66.752 17.4275 66.746 17.4216C66.7401 17.4156 66.7367 17.4075 66.7367 17.3991L66.7388 15.8822C66.7388 15.8773 66.74 15.8725 66.7422 15.8682C66.7443 15.8639 66.7475 15.8601 66.7514 15.8571C66.7552 15.8542 66.7597 15.8522 66.7645 15.8512C66.7693 15.8503 66.7742 15.8505 66.7789 15.8517Z" fill="#21397D"/>
<path d="M76.9461 20.169L78.715 18.4984C78.7293 18.4846 78.7452 18.483 78.7628 18.4936L81.6483 20.2694C81.6573 20.2749 81.6645 20.2831 81.669 20.2927C81.6734 20.3023 81.6749 20.3131 81.6733 20.3236C81.6716 20.3341 81.667 20.3438 81.6598 20.3517C81.6527 20.3595 81.6434 20.3651 81.6331 20.3677C79.5921 20.8834 77.3138 21.3826 76.2594 23.4332C76.2566 23.4388 76.2523 23.4434 76.247 23.4467C76.2418 23.45 76.2357 23.4518 76.2295 23.4519C76.2233 23.4519 76.2171 23.4503 76.2118 23.4471C76.2064 23.444 76.2021 23.4394 76.1992 23.4339C75.0541 21.3113 72.7798 20.8883 70.6821 20.3268C70.6754 20.3251 70.6693 20.3214 70.6646 20.3162C70.6599 20.311 70.6568 20.3046 70.6557 20.2977C70.6546 20.2908 70.6556 20.2837 70.6584 20.2773C70.6612 20.2709 70.6659 20.2655 70.6718 20.2617L74.8353 17.5611C74.849 17.5524 74.8653 17.5491 74.8812 17.5518C74.8971 17.5545 74.9113 17.5629 74.9211 17.5756L76.9046 20.1662C76.907 20.1693 76.91 20.1718 76.9134 20.1736C76.9168 20.1755 76.9206 20.1765 76.9245 20.1768C76.9285 20.1771 76.9324 20.1765 76.9361 20.1752C76.9398 20.1738 76.9433 20.1717 76.9461 20.169Z" fill="#21397D"/>
<path d="M69.0954 19.7709L66.772 18.7574C66.7638 18.7538 66.7567 18.748 66.7516 18.7407C66.7465 18.7334 66.7435 18.7248 66.7429 18.7158L66.7298 18.4403C66.7295 18.4338 66.7305 18.4272 66.7329 18.4211C66.7352 18.415 66.7387 18.4094 66.7432 18.4047C66.7477 18.3999 66.7532 18.3962 66.7592 18.3936C66.7652 18.3911 66.7717 18.3897 66.7782 18.3897H69.3605C69.3724 18.3897 69.3839 18.3939 69.3928 18.4017C69.4017 18.4095 69.4075 18.4202 69.409 18.432L69.5267 19.3375C69.5276 19.3447 69.5269 19.3519 69.5246 19.3587C69.5223 19.3656 69.5185 19.3718 69.5136 19.377L69.1501 19.7598C69.1432 19.7671 69.1343 19.772 69.1245 19.774C69.1147 19.776 69.1045 19.7749 69.0954 19.7709Z" fill="#21397D"/>
<path d="M83.0668 18.4133C83.0674 18.4069 83.0703 18.4009 83.075 18.3965C83.0798 18.3921 83.086 18.3897 83.0924 18.3897H85.9842C86.0073 18.3897 86.0188 18.4013 86.0188 18.4244V18.5296C86.0188 18.5587 86.0057 18.5797 85.9794 18.5926C85.1163 19.0154 84.2382 19.404 83.3451 19.7584C83.3207 19.7681 83.2992 19.7637 83.2807 19.7453L82.99 19.4538C82.9748 19.4386 82.9681 19.4204 82.9699 19.3991L83.0668 18.4133Z" fill="#21397D"/>
<path d="M76.823 25.8667C76.8597 23.1978 78.589 22.3324 80.8626 21.7461C82.5954 21.2995 84.2459 20.6861 85.8583 19.9142C85.863 19.912 85.8682 19.9111 85.8734 19.9116C85.8785 19.9121 85.8835 19.9141 85.8876 19.9172C85.8917 19.9204 85.8949 19.9246 85.8969 19.9294C85.8988 19.9343 85.8993 19.9395 85.8984 19.9447C85.1521 24.5139 81.4213 27.7276 76.8403 28.0654C76.8366 28.0657 76.8328 28.0652 76.8293 28.064C76.8258 28.0628 76.8225 28.0608 76.8198 28.0583C76.8171 28.0558 76.8149 28.0527 76.8134 28.0493C76.8119 28.0459 76.8112 28.0422 76.8112 28.0384C76.8089 27.3161 76.8128 26.5922 76.823 25.8667ZM79.3132 23.3571H80.3163C80.345 23.3571 80.3593 23.3425 80.3593 23.3134L80.3586 22.8136C80.3586 22.7836 80.3436 22.7686 80.3136 22.7686H78.6783C78.6506 22.7686 78.6356 22.7824 78.6333 22.8101L78.5066 24.3076C78.5048 24.3321 78.5161 24.3441 78.5406 24.3436C78.853 24.3385 79.1648 24.3461 79.4759 24.3664C79.721 24.3824 79.867 24.6413 79.6538 24.8157C79.415 25.011 78.8722 24.8393 78.6063 24.6987C78.5865 24.6881 78.5717 24.6932 78.562 24.714L78.326 25.2166C78.3153 25.2387 78.3209 25.2556 78.3426 25.2671C79.0487 25.6361 80.5635 25.6908 80.5136 24.5527C80.4839 23.8763 79.8456 23.724 79.291 23.7579C79.2596 23.7597 79.2449 23.745 79.2467 23.7136L79.2675 23.3993C79.2693 23.3711 79.2846 23.3571 79.3132 23.3571ZM81.9952 23.4194L81.1236 25.4257C81.1219 25.4297 81.1212 25.434 81.1215 25.4384C81.1219 25.4427 81.1234 25.4469 81.1258 25.4506C81.1282 25.4542 81.1315 25.4572 81.1353 25.4592C81.1391 25.4613 81.1434 25.4624 81.1478 25.4624L81.899 25.47C81.922 25.47 81.9382 25.4594 81.9474 25.4381C82.2442 24.75 82.5396 24.0609 82.8336 23.3709C82.9139 23.1819 82.8848 23.0033 82.8862 22.8039C82.8866 22.7804 82.8751 22.7686 82.8516 22.7686H80.6902C80.6805 22.7686 80.6711 22.7725 80.6642 22.7793C80.6574 22.7862 80.6535 22.7956 80.6535 22.8053V23.7461C80.6535 23.7752 80.6678 23.7897 80.6964 23.7897H81.2787C81.3036 23.7897 81.3156 23.7775 81.3147 23.7531L81.3029 23.4214C81.3027 23.4152 81.3038 23.4089 81.3061 23.4031C81.3084 23.3973 81.3118 23.392 81.3162 23.3875C81.3206 23.383 81.3259 23.3795 81.3317 23.3771C81.3375 23.3747 81.3437 23.3736 81.35 23.3737L81.9682 23.3771C81.9986 23.3771 82.0076 23.3912 81.9952 23.4194Z" fill="#21397D"/>
<path d="M71.8314 21.8104C73.3081 22.1677 74.9766 22.9174 75.4335 24.5284C75.7333 25.5863 75.6363 26.8857 75.6356 28.0343C75.6357 28.0387 75.6348 28.0431 75.633 28.0471C75.6312 28.0512 75.6286 28.0548 75.6254 28.0578C75.6221 28.0608 75.6183 28.0631 75.6141 28.0645C75.6099 28.066 75.6054 28.0665 75.601 28.0661C71.0657 27.7193 67.6312 24.5776 66.871 20.1281C66.8618 20.0732 66.8826 20.0573 66.9333 20.0804C68.5194 20.7997 70.1013 21.3923 71.8314 21.8104ZM72.8754 24.3609C72.8069 24.9286 72.1831 25.0151 71.7573 24.7943C71.7343 24.7827 71.717 24.7885 71.7054 24.8116L71.4645 25.2927C71.4525 25.3172 71.4587 25.335 71.4832 25.3461C72.4863 25.8016 73.6501 25.3287 73.6646 24.1172C73.6757 23.2103 73.2638 22.746 72.4289 22.7243C71.9006 22.7104 71.3939 23.0372 71.3731 23.6028C71.3433 24.41 72.2316 24.6565 72.8422 24.3381C72.868 24.3242 72.8791 24.3318 72.8754 24.3609ZM69.767 23.3224C69.767 23.3316 69.7706 23.3404 69.7771 23.3469C69.7836 23.3534 69.7924 23.3571 69.8016 23.3571H70.2343C70.2434 23.3571 70.2522 23.3607 70.2587 23.3672C70.2652 23.3737 70.2689 23.3825 70.2689 23.3917V25.434C70.2689 25.4432 70.2725 25.452 70.279 25.4584C70.2855 25.4649 70.2943 25.4686 70.3035 25.4686H70.9958C71.005 25.4686 71.0138 25.4649 71.0203 25.4584C71.0268 25.452 71.0304 25.4432 71.0304 25.434V22.8032C71.0304 22.794 71.0268 22.7852 71.0203 22.7787C71.0138 22.7722 71.005 22.7686 70.9958 22.7686H69.8023C69.7931 22.7686 69.7843 22.7722 69.7778 22.7787C69.7713 22.7852 69.7676 22.794 69.7676 22.8032L69.767 23.3224Z" fill="#21397D"/>
<path d="M72.8421 24.3381C72.2315 24.6565 71.3433 24.4101 71.373 23.6028C71.3938 23.0372 71.9006 22.7104 72.4288 22.7243C73.2637 22.746 73.6757 23.2103 73.6646 24.1172C73.65 25.3287 72.4863 25.8016 71.4831 25.3461C71.4587 25.335 71.4524 25.3172 71.4644 25.2927L71.7054 24.8116C71.7169 24.7885 71.7342 24.7827 71.7573 24.7943C72.183 25.0151 72.8068 24.9286 72.8754 24.3609C72.879 24.3318 72.868 24.3242 72.8421 24.3381ZM72.8476 23.6064C72.8494 23.5168 72.8123 23.4301 72.7443 23.3653C72.6763 23.3005 72.5831 23.263 72.485 23.2609C72.387 23.2588 72.2923 23.2925 72.2216 23.3544C72.151 23.4162 72.1102 23.5013 72.1084 23.5909C72.1065 23.6805 72.1436 23.7672 72.2116 23.832C72.2796 23.8968 72.3729 23.9344 72.4709 23.9364C72.5689 23.9385 72.6637 23.9049 72.7343 23.843C72.805 23.7811 72.8457 23.696 72.8476 23.6064Z" fill="white"/>
<path d="M69.7668 23.3224L69.7675 22.8032C69.7675 22.794 69.7712 22.7852 69.7777 22.7787C69.7842 22.7722 69.793 22.7686 69.8022 22.7686H70.9957C71.0049 22.7686 71.0137 22.7722 71.0202 22.7787C71.0267 22.7852 71.0303 22.794 71.0303 22.8032V25.434C71.0303 25.4432 71.0267 25.452 71.0202 25.4585C71.0137 25.4649 71.0049 25.4686 70.9957 25.4686H70.3034C70.2942 25.4686 70.2854 25.4649 70.2789 25.4585C70.2724 25.452 70.2688 25.4432 70.2688 25.434V23.3917C70.2688 23.3825 70.2651 23.3737 70.2586 23.3672C70.2521 23.3607 70.2433 23.3571 70.2342 23.3571H69.8015C69.7923 23.3571 69.7835 23.3534 69.777 23.3469C69.7705 23.3404 69.7668 23.3316 69.7668 23.3224Z" fill="white"/>
<path d="M79.2674 23.3993L79.2467 23.7136C79.2448 23.745 79.2596 23.7597 79.291 23.7579C79.8455 23.724 80.4838 23.8763 80.5136 24.5527C80.5634 25.6908 79.0487 25.6361 78.3425 25.2671C78.3208 25.2556 78.3153 25.2387 78.3259 25.2166L78.562 24.714C78.5717 24.6932 78.5865 24.6881 78.6063 24.6987C78.8721 24.8393 79.4149 25.011 79.6538 24.8157C79.867 24.6413 79.7209 24.3824 79.4758 24.3664C79.1648 24.3461 78.853 24.3385 78.5405 24.3436C78.5161 24.3441 78.5048 24.3321 78.5066 24.3076L78.6333 22.8101C78.6356 22.7824 78.6506 22.7686 78.6783 22.7686H80.3135C80.3435 22.7686 80.3585 22.7836 80.3585 22.8136L80.3592 23.3134C80.3592 23.3425 80.3449 23.3571 80.3163 23.3571H79.3131C79.2845 23.3571 79.2693 23.3711 79.2674 23.3993Z" fill="white"/>
<path d="M81.9681 23.3771L81.3499 23.3737C81.3436 23.3736 81.3374 23.3747 81.3316 23.3771C81.3258 23.3795 81.3206 23.383 81.3162 23.3875C81.3118 23.392 81.3083 23.3973 81.306 23.4031C81.3037 23.4089 81.3026 23.4152 81.3028 23.4214L81.3146 23.7531C81.3155 23.7775 81.3035 23.7897 81.2786 23.7897H80.6964C80.6677 23.7897 80.6534 23.7752 80.6534 23.7461V22.8053C80.6534 22.7956 80.6573 22.7862 80.6642 22.7793C80.6711 22.7725 80.6804 22.7686 80.6901 22.7686H82.8515C82.8751 22.7686 82.8866 22.7804 82.8861 22.8039C82.8848 23.0033 82.9138 23.1819 82.8335 23.3709C82.5395 24.0609 82.2441 24.75 81.9474 25.4381C81.9381 25.4594 81.922 25.47 81.8989 25.47L81.1478 25.4624C81.1434 25.4624 81.1391 25.4613 81.1353 25.4592C81.1314 25.4572 81.1281 25.4542 81.1257 25.4506C81.1233 25.4469 81.1219 25.4427 81.1215 25.4384C81.1211 25.434 81.1218 25.4297 81.1235 25.4257L81.9951 23.4194C82.0076 23.3912 81.9986 23.3771 81.9681 23.3771Z" fill="white"/>
<path d="M72.4709 23.9364C72.6751 23.9407 72.8437 23.793 72.8476 23.6064C72.8515 23.4199 72.6892 23.2652 72.4851 23.2609C72.281 23.2566 72.1123 23.4044 72.1084 23.5909C72.1045 23.7775 72.2668 23.9322 72.4709 23.9364Z" fill="#21397D"/>
<path d="M35.4804 34.8985L30.3552 34.9006C30.3012 34.9006 30.2648 34.8754 30.2458 34.8251L27.9585 28.89C27.9511 28.8706 27.937 28.8609 27.9162 28.8609H14.8205C14.8011 28.8609 14.788 28.8699 14.7811 28.8879L12.475 34.8687C12.4712 34.8791 12.4642 34.8881 12.455 34.8944C12.4459 34.9007 12.435 34.9041 12.4238 34.9041L7.21692 34.8812L11.5978 24.723C11.6075 24.7008 11.6244 24.6897 11.6484 24.6897H31.1535C31.1765 24.6897 31.1925 24.7004 31.2012 24.7216L35.4804 34.8985Z" fill="white"/>
<path d="M159.243 30.7516C157.86 30.4754 155.584 30.1161 155.304 28.3389C155.103 27.0595 155.518 26.0864 156.552 25.4194C158.244 24.327 161.136 24.5686 162.859 25.4734C162.87 25.479 162.878 25.4886 162.883 25.5001C162.887 25.5116 162.886 25.5244 162.882 25.5357L161.993 27.6791C161.99 27.6848 161.987 27.69 161.982 27.6943C161.978 27.6986 161.973 27.702 161.967 27.7041C161.961 27.7063 161.955 27.7072 161.949 27.7068C161.943 27.7064 161.937 27.7048 161.932 27.702C161.433 27.4426 160.909 27.2543 160.362 27.1371C159.963 27.0526 158.25 26.8352 158.265 27.6203C158.271 28.0232 158.973 28.1451 159.319 28.2115C160.791 28.4954 163.126 28.8685 163.268 30.8222C163.415 32.8527 161.841 33.9424 160.021 34.1453C158.408 34.3246 156.568 34.1058 155.13 33.3014C155.119 33.2955 155.111 33.2859 155.108 33.2746C155.104 33.2632 155.104 33.2508 155.109 33.2397L156.065 31.077C156.067 31.0727 156.07 31.0688 156.073 31.0656C156.077 31.0624 156.081 31.06 156.085 31.0585C156.09 31.057 156.094 31.0565 156.099 31.0569C156.104 31.0574 156.108 31.0588 156.112 31.0611C157.178 31.6502 158.602 32.0421 159.819 31.8039C160.249 31.7194 160.462 31.2348 160.019 31.0001C159.873 30.9233 159.468 30.7966 159.243 30.7516Z" fill="white"/>
<path d="M104.814 34.0013C102.817 33.4744 101.999 31.7949 101.996 29.8613C101.993 28.2247 101.992 26.5876 101.994 24.9501C101.994 24.9265 102.006 24.9147 102.029 24.9147H105.023C105.032 24.9147 105.041 24.9183 105.047 24.9247C105.054 24.931 105.057 24.9397 105.057 24.9487C105.058 26.6241 105.057 28.3031 105.057 29.9859C105.057 31.0154 105.534 31.8932 106.722 31.7021C107.491 31.5782 107.82 30.8367 107.822 30.1368C107.828 28.4084 107.829 26.6797 107.825 24.9507C107.825 24.9412 107.829 24.932 107.836 24.9253C107.842 24.9185 107.852 24.9147 107.861 24.9147H110.803C110.826 24.9147 110.837 24.9263 110.837 24.9494C110.839 26.6695 110.839 28.3885 110.837 30.1064C110.835 33.5326 107.708 34.7649 104.814 34.0013Z" fill="white"/>
<path d="M115.211 34.0013H112.264C112.257 34.0013 112.251 33.9988 112.247 33.9944C112.242 33.99 112.24 33.984 112.24 33.9777V24.9383C112.24 24.932 112.242 24.9261 112.247 24.9216C112.251 24.9172 112.257 24.9147 112.264 24.9147H114.759C114.762 24.9147 114.765 24.9155 114.769 24.9169C114.772 24.9183 114.774 24.9204 114.777 24.9231L118.188 29.0028C118.191 29.0065 118.195 29.0092 118.2 29.0104C118.204 29.0116 118.209 29.0114 118.214 29.0098C118.218 29.0081 118.222 29.0051 118.225 29.0011C118.228 28.9971 118.229 28.9924 118.229 28.9876L118.227 24.9383C118.227 24.932 118.23 24.9261 118.234 24.9216C118.238 24.9172 118.244 24.9147 118.251 24.9147H121.182C121.188 24.9147 121.194 24.9172 121.198 24.9216C121.203 24.9261 121.205 24.932 121.205 24.9383V33.9777C121.205 33.984 121.203 33.99 121.198 33.9944C121.194 33.9988 121.188 34.0013 121.182 34.0013H118.699C118.696 34.0013 118.692 34.0006 118.689 33.9991C118.686 33.9977 118.683 33.9956 118.681 33.993L115.276 29.9201C115.273 29.9164 115.268 29.9138 115.264 29.9125C115.259 29.9113 115.254 29.9115 115.25 29.9132C115.245 29.9149 115.241 29.9179 115.238 29.9218C115.236 29.9258 115.234 29.9305 115.234 29.9354V33.9777C115.234 33.984 115.232 33.99 115.227 33.9944C115.223 33.9988 115.217 34.0013 115.211 34.0013Z" fill="white"/>
<path d="M125.738 24.9147H122.713C122.702 24.9147 122.694 24.9231 122.694 24.9334V33.9819C122.694 33.9922 122.702 34.0006 122.713 34.0006H125.738C125.748 34.0006 125.757 33.9922 125.757 33.9819V24.9334C125.757 24.9231 125.748 24.9147 125.738 24.9147Z" fill="white"/>
<path d="M131.735 30.1784L133.931 24.9272C133.932 24.9235 133.935 24.9203 133.939 24.918C133.942 24.9158 133.946 24.9147 133.95 24.9148H136.917C136.921 24.9148 136.924 24.9157 136.927 24.9174C136.93 24.919 136.933 24.9214 136.934 24.9243C136.936 24.9272 136.937 24.9305 136.938 24.9339C136.938 24.9373 136.937 24.9407 136.936 24.9438L133.112 33.9888C133.111 33.9926 133.108 33.9958 133.105 33.998C133.101 34.0002 133.097 34.0014 133.093 34.0013H130.106C130.102 34.0014 130.098 34.0002 130.094 33.998C130.091 33.9958 130.088 33.9926 130.086 33.9888L126.265 24.9438C126.263 24.9407 126.263 24.9373 126.263 24.9339C126.263 24.9305 126.265 24.9272 126.266 24.9243C126.268 24.9214 126.271 24.919 126.274 24.9174C126.277 24.9157 126.28 24.9148 126.283 24.9148H129.535C129.539 24.9147 129.543 24.916 129.546 24.9183C129.55 24.9207 129.552 24.924 129.554 24.9279L131.697 30.1784C131.699 30.1821 131.702 30.1852 131.705 30.1874C131.708 30.1897 131.712 30.1908 131.716 30.1908C131.72 30.1908 131.724 30.1897 131.728 30.1874C131.731 30.1852 131.734 30.1821 131.735 30.1784Z" fill="white"/>
<path d="M140.296 31.7001L144.778 31.6987C144.788 31.6987 144.796 31.7023 144.803 31.7088C144.809 31.7153 144.813 31.7241 144.813 31.7333V33.9667C144.813 33.9759 144.809 33.9847 144.803 33.9911C144.796 33.9976 144.788 34.0013 144.778 34.0013H137.284C137.275 34.0013 137.266 33.9976 137.26 33.9911C137.253 33.9847 137.25 33.9759 137.25 33.9667V24.9494C137.25 24.9402 137.253 24.9314 137.26 24.9249C137.266 24.9184 137.275 24.9147 137.284 24.9147H144.605C144.615 24.9147 144.623 24.9184 144.63 24.9249C144.636 24.9314 144.64 24.9402 144.64 24.9494V27.1821C144.64 27.1912 144.636 27.2 144.63 27.2065C144.623 27.213 144.615 27.2167 144.605 27.2167H140.296C140.287 27.2167 140.278 27.2203 140.271 27.2268C140.265 27.2333 140.261 27.2421 140.261 27.2513V28.2551C140.261 28.2643 140.265 28.2731 140.271 28.2796C140.278 28.2861 140.287 28.2897 140.296 28.2897H144.069C144.078 28.2897 144.087 28.2934 144.093 28.2999C144.1 28.3064 144.103 28.3152 144.103 28.3244V30.4539C144.103 30.4631 144.1 30.4719 144.093 30.4784C144.087 30.4849 144.078 30.4885 144.069 30.4885H140.296C140.287 30.4885 140.278 30.4922 140.271 30.4987C140.265 30.5051 140.261 30.514 140.261 30.5231V31.6654C140.261 31.6746 140.265 31.6834 140.271 31.6899C140.278 31.6964 140.287 31.7001 140.296 31.7001Z" fill="white"/>
<path d="M149.053 31.7513V33.9667C149.053 33.9759 149.05 33.9847 149.043 33.9911C149.037 33.9976 149.028 34.0013 149.019 34.0013H146.025C146.015 34.0013 146.007 33.9976 146 33.9911C145.994 33.9847 145.99 33.9759 145.99 33.9667V24.9473C145.99 24.9387 145.993 24.9304 146 24.9243C146.006 24.9182 146.014 24.9147 146.023 24.9147C147.527 24.9134 149.034 24.9159 150.542 24.9224C152.689 24.9314 154.658 26.1657 154.503 28.5646C154.429 29.7069 153.866 30.636 152.828 31.1711C152.823 31.1735 152.819 31.177 152.816 31.1811C152.812 31.1853 152.81 31.1901 152.809 31.1953C152.807 31.2005 152.807 31.2059 152.808 31.2112C152.809 31.2164 152.811 31.2214 152.814 31.2258L154.679 33.966C154.681 33.9694 154.683 33.9734 154.683 33.9775C154.683 33.9816 154.682 33.9857 154.681 33.9893C154.679 33.993 154.676 33.996 154.672 33.9981C154.669 34.0002 154.665 34.0013 154.661 34.0013H151.465C151.441 34.0013 151.423 33.9916 151.409 33.9722L149.907 31.7471C149.894 31.7268 149.875 31.7167 149.85 31.7167H149.088C149.065 31.7167 149.053 31.7282 149.053 31.7513ZM149.09 29.4009C149.841 29.3967 151.225 29.6377 151.397 28.5597C151.636 27.0699 149.974 27.2444 149.084 27.2741C149.064 27.2746 149.053 27.285 149.053 27.3053V29.3642C149.053 29.3887 149.066 29.4009 149.09 29.4009Z" fill="white"/>
<path d="M167.242 24.9147H164.217C164.207 24.9147 164.198 24.9231 164.198 24.9334V33.9819C164.198 33.9922 164.207 34.0006 164.217 34.0006H167.242C167.253 34.0006 167.261 33.9922 167.261 33.9819V24.9334C167.261 24.9231 167.253 24.9147 167.242 24.9147Z" fill="white"/>
<path d="M176.447 25.9137L176.454 27.2506C176.454 27.2741 176.442 27.2859 176.418 27.2859H173.838C173.803 27.2859 173.786 27.3032 173.786 27.3378V33.9667C173.786 33.9759 173.782 33.9847 173.776 33.9911C173.769 33.9976 173.761 34.0013 173.751 34.0013H170.757C170.734 34.0013 170.723 33.9897 170.723 33.9667V27.3205C170.723 27.3113 170.719 27.3025 170.712 27.296C170.706 27.2895 170.697 27.2859 170.688 27.2859H168.092C168.083 27.2859 168.074 27.2823 168.067 27.2758C168.061 27.2693 168.057 27.2605 168.057 27.2513V24.9494C168.057 24.9263 168.069 24.9147 168.092 24.9147H179.08C179.093 24.9147 179.106 24.9182 179.117 24.9248C179.129 24.9313 179.138 24.9408 179.145 24.9521L180.959 28.0246C180.972 28.0463 180.985 28.0463 180.998 28.0246L182.827 24.9473C182.84 24.9256 182.859 24.9147 182.884 24.9147H185.762C185.793 24.9147 185.8 24.9277 185.784 24.9535L182.407 30.6602C182.394 30.6814 182.388 30.7043 182.388 30.7287V33.9667C182.388 33.9759 182.384 33.9847 182.378 33.9911C182.371 33.9976 182.363 34.0013 182.353 34.0013H179.396C179.337 34.0013 179.307 33.9717 179.307 33.9127V30.69C179.307 30.6651 179.301 30.642 179.288 30.6207L176.481 25.9047C176.458 25.8674 176.447 25.8704 176.447 25.9137Z" fill="white"/>
</g>
<defs>
<clipPath id="clip0_831_1193">
<rect width="220.985" height="36" fill="white" transform="translate(0.536133 0.233978)"/>
</clipPath>
</defs>
</svg>
